<svg xmlns="http://www.w3.org/2000/svg" xmlns:xlink="http://www.w3.org/1999/xlink" viewBox="0 0 240 234" width="40" height="40">
<path fill="none" class="st0" d="M 10 10 h 220 v 214 H 10 z"/>
<path fill="#ffffff" class="st1" d="M 0 0 v 234 h 240 V 0 H 0 z m 10 10 h 220 v 214 H 10 V 10 z"/>
<path fill="#ffffff" class="st1" d="M 174.3 98.8 c -1.5 -0.7 -3.4 -1 -5.8 -1 c -12.6 0 -21 9.7 -21 25.8 c 0 18.4 8.6 25.8 19.8 25.8 c 2.4 0 5 -0.3 6.9 -1.1 V 98.8 h 0.1 z m -44.8 25.6 c 0 -23.3 15 -41.5 39.6 -41.5 c 2.1 0 3.2 0 5.2 0.2 v -26 c 0 -0.6 0.5 -1 1 -1 h 16.1 c 0.8 0 1 0.3 1 0.8 v 91.4 c 0 2.7 0 6.1 0.5 9.8 c 0 0.7 0 0.8 -0.6 1.1 c -8.4 4 -17.2 5.8 -25.6 5.8 c -21.7 0 -37.2 -13.4 -37.2 -40.6 z m -34.1 -16.2 l 28 54.3 c 0.5 0.8 0.2 1.6 -0.6 1.6 h -17.4 c -1.1 0 -1.6 -0.3 -2.1 -1.3 c -6.4 -13.2 -12.9 -26.9 -19.6 -41.1 h -0.2 c -6 13.4 -12.6 28 -19 41.2 c -0.5 0.8 -1 1.1 -1.8 1.1 H 46.1 c -1 0 -1.1 -0.8 -0.6 -1.4 l 27.4 -52.7 L 46.4 57.5 c -0.6 -0.8 0 -1.5 0.7 -1.5 h 17.2 c 1 0 1.5 0.2 1.8 1.1 C 72.4 70.4 78.8 83.5 84.8 96.9 h 0.2 c 5.8 -13.2 12.2 -26.5 18.3 -39.6 c 0.5 -0.8 0.8 -1.3 1.8 -1.3 h 16.1 c 0.8 0 1.1 0.6 0.6 1.5 l -26.4 50.7 z"/>
</svg>